<svg fill="none" height="24" viewBox="0 0 24 24" width="24" xmlns="http://www.w3.org/2000/svg"><g fill="#292d32"><path d="m18 18.86h-.76c-.8 0-1.56.31-2.12.87l-1.71 1.69c-.78.77-2.05.77-2.83 0l-1.71-1.69c-.56-.56-1.33-.87-2.12-.87h-.75c-1.66 0-3-1.33-3-2.97v-10.91002c0-1.64 1.34-2.96997 3-2.96997h12c1.66 0 3 1.32997 3 2.96997v10.91002c0 1.63-1.34 2.97-3 2.97z" opacity=".4"/><path d="m10.3802 14.5099h-2.67997c-.44 0-.85-.21-1.11-.57-.25-.34-.31001-.7599-.19001-1.1599.35-1.07 1.21-1.6501 1.97-2.1701.8-.54 1.25-.87994 1.25-1.45994 0-.52-.42-.94-.94-.94s-.93999.42-.93999.94c0 .41-.34.75-.75.75s-.75-.34-.75-.75c0-1.34 1.08999-2.44 2.43999-2.44 1.34998 0 2.43998 1.09 2.43998 2.44 0 1.41004-1.06 2.12994-1.90996 2.70994-.53.36-1.03002.7-1.28002 1.15h2.43998c.41 0 .75.34.75.75s-.33.75-.74.75z"/><path d="m16.0408 14.5099c-.41 0-.75-.34-.75-.75v-.69h-1.9599s0 0-.01 0c-.49 0-.94-.2599-1.19-.6799-.25-.43-.25-.9601 0-1.3801.68-1.16995 1.47-2.49999 2.19-3.65999.32-.51.93-.73995 1.5-.57995.57.17.97.68997.96 1.28997v3.52007h.22c.41 0 .75.34.75.75s-.34.75-.75.75h-.2101v.69c0 .41-.33.7399-.75.7399zm-.75-5.86995c-.59.96-1.2 1.98995-1.75 2.92995h1.75z"/></g></svg>