<svg fill="none" height="24" viewBox="0 0 24 24" width="24" xmlns="http://www.w3.org/2000/svg"><g fill="#292d32"><path d="m15.01 14.7499v7.2399l-11.99999.0201v-7.26l-.01001-1.5v-6.18004c0-.67.34001-1.29003.89001-1.66003l4-2.66999c.67-.45 1.54998-.45 2.21999 0l4 2.66999c.56.37.89.99003.89 1.66003v6.18004z" opacity=".4"/><path d="m22 21.2511h-1.27v-3c.95-.31 1.64-1.2 1.64-2.25v-2c0-1.31-1.07-2.38-2.38-2.38s-2.38 1.07-2.38 2.38v2c0 1.04.68 1.92 1.61 2.24v3.01h-17.22c-.41 0-.75.34-.75.75s.34.75.75.75h17.93c.02 0 .03.01.05.01s.03-.01.05-.01h1.97c.41 0 .75-.34.75-.75s-.34-.75-.75-.75z"/><path d="m15.01 14.75h-11.99999l-.01001-1.5h12z"/><path d="m9 22.75c-.41 0-.75-.34-.75-.75v-3.75c0-.41.34-.75.75-.75s.75.34.75.75v3.75c0 .41-.34.75-.75.75z"/><path d="m9 10.75c.9665 0 1.75-.7835 1.75-1.75s-.7835-1.75-1.75-1.75-1.75.7835-1.75 1.75.7835 1.75 1.75 1.75z"/></g></svg>