<svg fill="none" height="24" viewBox="0 0 24 24" width="24" xmlns="http://www.w3.org/2000/svg"><g fill="#292d32"><path d="m16.7502 3.56v-1.56c0-.41-.34-.75-.75-.75s-.75.34-.75.75v1.5h-6.49998v-1.5c0-.41-.34-.75-.75-.75s-.75.34-.75.75v1.56c-2.7.25-4.00999 1.86-4.20999 4.25-.02.29.22.53.5.53h16.91997c.29 0 .53-.25.5-.53-.2-2.39-1.51-4-4.21-4.25z"/><path d="m20 9.83984c.55 0 1 .44996 1 .99996v6.16c0 3-1.5 5-5 5h-8c-3.5 0-5-2-5-5v-6.16c0-.55.45-.99996 1-.99996z" opacity=".4"/><path d="m8.5 14.9989c-.13 0-.26-.03-.38-.08s-.22999-.12-.32999-.21c-.09-.1-.16002-.21-.21002-.33s-.07999-.25-.07999-.38.02999-.26.07999-.38.12002-.23.21002-.33c.1-.09.20999-.16.32999-.21.24-.1.52-.1.76 0 .12.05.22999.12.32999.21.09.1.16002.21.21002.33s.07999.25.07999.38-.02999.26-.07999.38-.12002.23-.21002.33c-.1.09-.20999.16-.32999.21s-.25.08-.38.08z"/><path d="m12 14.9986c-.13 0-.26-.03-.38-.08s-.23-.12-.33-.21c-.18-.19-.29-.45-.29-.71s.11-.52.29-.71c.1-.09.21-.16.33-.21.24-.11.52-.11.76 0 .12.05.23.12.33.21.18.19.29.45.29.71s-.11.52-.29.71c-.1.09-.21.16-.33.21s-.25.08-.38.08z"/><path d="m8.5 18.4989c-.13 0-.26-.03-.38-.08s-.22999-.12-.32999-.21c-.18-.19-.29001-.45-.29001-.71s.11001-.52.29001-.71c.1-.09.20999-.16.32999-.21.24-.1.52-.1.76 0 .12.05.22999.12.32999.21.18.19.29001.45.29001.71s-.11001.52-.29001.71c-.1.09-.20999.16-.32999.21s-.25.08-.38.08z"/></g></svg>