<svg fill="none" height="24" viewBox="0 0 24 24" width="24" xmlns="http://www.w3.org/2000/svg"><g fill="#292d32"><path d="m5.15039 22c-.41 0-.75-.34-.75-.75v-18.5c0-.41.34-.75.75-.75s.75.34.75.75v18.5c0 .41-.34.75-.75.75z"/><path d="m18.0195 12.3301-1.22-1.22c-.29-.25-.46-.62-.47-1.03-.02-.44999.16-.89999.49-1.22999l1.2-1.2c1.04-1.04 1.43-2.04 1.1-2.83-.32-.78-1.31-1.21-2.77-1.21h-11.19997c-.21.01-.38.18-.38.39v11.99999c0 .21.17.38.38.38h11.19997c1.44 0 2.41-.44 2.74-1.23.33-.8-.05-1.79-1.07-2.82z" opacity=".4"/></g></svg>