<svg fill="none" height="24" viewBox="0 0 24 24" width="24" xmlns="http://www.w3.org/2000/svg"><g fill="#292d32"><path d="m7.65055 20.9098c-.03 0-.07.02-.1.02-1.94-.96-3.52-2.55-4.49-4.49 0-.03.02-.07.02-.1 1.22.36 2.48.63 3.73.84.22 1.26.48 2.51.84 3.73z" opacity=".4"/><path d="m20.9391 16.4498c-.99 1.99-2.64 3.6-4.65 4.57.38-1.27.7-2.55.91-3.84 1.26-.21 2.5-.48 3.72-.84-.01.04.02.08.02.11z" opacity=".4"/><path d="m21.0191 7.70998c-1.26-.38-2.53-.69-3.82-.91-.21-1.29-.52-2.57-.91-3.82 2.07.99 3.74 2.66 4.73 4.73z" opacity=".4"/><path d="m7.65047 3.09006c-.36 1.22-.62 2.46-.83 3.72-1.29.2-2.57.52-3.84.9.97-2.01 2.58-3.66 4.57-4.65.03 0 .07.03.1.03z" opacity=".4"/><path d="m15.4898 6.59c-2.32-.26-4.66-.26-6.98003 0 .25-1.37.57-2.74 1.02-4.06.02-.08.01-.14.02-.22.79003-.19 1.60003-.31 2.45003-.31.84 0 1.66.12 2.44.31.01.08.01.14.03.22.45 1.33.77 2.69 1.02 4.06z"/><path d="m6.59 15.4898c-1.38-.25-2.74-.57-4.06-1.02-.08-.02-.14-.01-.22-.02-.19-.79-.31-1.6-.31-2.45 0-.84.12-1.66.31-2.44003.08-.01.14-.01.22-.03 1.33-.44 2.68-.77 4.06-1.02-.25 2.32003-.25 4.66003 0 6.98003z"/><path d="m22.0002 11.9998c0 .85-.12 1.66-.31 2.45-.08.01-.14 0-.22.02-1.33.44-2.69.77-4.06 1.02.26-2.32.26-4.66 0-6.98003 1.37.25 2.74.57 4.06 1.02.08.02.14.03.22.03.19.79003.31 1.60003.31 2.44003z"/><path d="m15.4898 17.4102c-.25 1.38-.57 2.74-1.02 4.06-.02.08-.02.14-.03.22-.78.19-1.6.31-2.44.31-.85 0-1.66-.12-2.45003-.31-.01-.08 0-.14-.02-.22-.44-1.33-.77-2.68-1.02-4.06 1.16.13 2.32003.22 3.49003.22s2.34-.09 3.49-.22z"/><path d="m15.7633 15.7633c-2.5011.3156-5.0255.3156-7.52663 0-.31556-2.5011-.31556-5.0255 0-7.52663 2.50113-.31556 5.02553-.31556 7.52663 0 .3156 2.50113.3156 5.02553 0 7.52663z"/></g></svg>