<svg fill="none" height="24" viewBox="0 0 24 24" width="24" xmlns="http://www.w3.org/2000/svg"><g fill="#292d32"><path d="m22 22.75h-20c-.41 0-.75-.34-.75-.75s.34-.75.75-.75h20c.41 0 .75.34.75.75s-.34.75-.75.75z"/><path d="m20.9992 9.98017v12.02003h-18.04998l.05-12.03004c0-.61.28-1.18994.77-1.56994l6.99998-5.44001c.72-.57 1.74-.57 2.46 0l1.34 1.03998 4.43 3.44001 1.23.96002c.49.38.77.95995.77 1.57995z" opacity=".4"/><path d="m13 17h-2c-.83 0-1.5.67-1.5 1.5v3.5h5v-3.5c0-.83-.67-1.5-1.5-1.5z"/><path d="m9.5 13.75h-2c-.55 0-1-.45-1-1v-1.5c0-.55.45-1 1-1h2c.55 0 1 .45 1 1v1.5c0 .55-.45 1-1 1z"/><path d="m16.5 13.75h-2c-.55 0-1-.45-1-1v-1.5c0-.55.45-1 1-1h2c.55 0 1 .45 1 1v1.5c0 .55-.45 1-1 1z"/><path d="m19.0003 7.44-4.43-3.44h3.41c.55 0 1 .43999 1 .98999z"/></g></svg>