<svg fill="none" height="24" viewBox="0 0 24 24" width="24" xmlns="http://www.w3.org/2000/svg"><g fill="#292d32"><path d="m12 22c5.5228 0 10-4.4772 10-10 0-5.52285-4.4772-10-10-10-5.52285 0-10 4.47715-10 10 0 5.5228 4.47715 10 10 10z" opacity=".4"/><path d="m8.19 16.78h1.48999c1.09001 0 1.94001-.85 1.94001-1.94v-1.49c0-1.09-.85-1.94-1.94001-1.94h-1.90999c.08-1.81003.5-2.08 1.71-2.79.36-.21.47001-.66997.26001-1.02997-.14-.24-.39001-.37006-.65001-.37006-.13 0-.25999.03004-.37999.10004-1.79 1.06-2.46001 1.75001-2.46001 4.82999v2.67c0 1.09.87 1.96 1.94 1.96z"/><path d="m14.3209 16.78h1.49c1.09 0 1.94-.85 1.94-1.94v-1.49c0-1.09-.85-1.94-1.94-1.94h-1.9101c.08-1.81003.5001-2.08 1.7101-2.79.36-.21.4699-.66997.2599-1.02997-.14-.24-.3899-.37006-.6499-.37006-.13 0-.26.03004-.38.10004-1.79 1.06-2.46 1.75001-2.46 4.82999v2.67c.01 1.09.88 1.96 1.94 1.96z"/></g></svg>