<svg fill="none" height="24" viewBox="0 0 24 24" width="24" xmlns="http://www.w3.org/2000/svg"><g fill="#292d32"><path d="m12 13.75c-.41 0-.75-.34-.75-.75v-5c0-.41.34-.75.75-.75s.75.34.75.75v5c0 .41-.34.75-.75.75z"/><path d="m14.8906 3.45h-5.77998c-.4 0-.72-.32-.72-.72s.32-.73.72-.73h5.77998c.4 0 .72.32.72.72s-.32.73-.72.73z"/><path d="m15.0001 19.9702v-2.94c0-1.27.76-2.03 2.03-2.03h2.94c.19 0 .36.02.53.06.11-.56.17-1.14.17-1.73 0-4.78004-3.89-8.67004-8.67-8.67004-4.78002 0-8.67002 3.89-8.67002 8.67004 0 4.78 3.89 8.67 8.67002 8.67 1.21 0 2.36-.25 3.41-.7-.26-.34-.41-.78-.41-1.33z" opacity=".4"/><path d="m19.97 15h-2.94c-1.27 0-2.03.76-2.03 2.03v2.94c0 1.27.76 2.03 2.03 2.03h2.94c1.27 0 2.03-.76 2.03-2.03v-2.94c0-1.27-.76-2.03-2.03-2.03zm-.28 4.46-1.18.68c-.24.14-.48.21-.7.21-.17 0-.32-.04-.46-.12-.32-.19-.5-.56-.5-1.05v-1.36c0-.49.18-.86.5-1.05s.73-.15 1.16.09l1.18.68c.42.25.66.59.66.96s-.23.71-.66.96z"/></g></svg>