<svg fill="none" height="24" viewBox="0 0 24 24" width="24" xmlns="http://www.w3.org/2000/svg"><g fill="#292d32"><path d="m16.19 2h-8.38c-3.64 0-5.81 2.17-5.81 5.81v8.37c0 3.65 2.17 5.82 5.81 5.82h8.37c3.64 0 5.81-2.17 5.81-5.81v-8.38c.01-3.64-2.16-5.81-5.8-5.81z" opacity=".4"/><path d="m12.0002 14.9098c-.19 0-.38-.07-.53-.22l-3.53004-3.53c-.29-.29-.29-.77 0-1.06.29-.28998.77-.28998 1.06 0l3.00004 3 3-3c.29-.28998.77-.28998 1.06 0 .29.29.29.77 0 1.06l-3.53 3.53c-.15.15-.34.22-.53.22z"/></g></svg>