<svg fill="none" height="24" viewBox="0 0 24 24" width="24" xmlns="http://www.w3.org/2000/svg"><g fill="#292d32"><path d="m12 22c5.5228 0 10-4.4772 10-10 0-5.52285-4.4772-10-10-10-5.52285 0-10 4.47715-10 10 0 5.5228 4.47715 10 10 10z" opacity=".4"/><path d="m15.4995 11.2499h-5.19l1.72-1.71996c.29-.29.29-.77 0-1.06s-.77-.29-1.06 0l-3.00005 2.99996c-.29.29-.29.77 0 1.06l3.00005 3c.15.15.34.22.53.22s.38-.07.53-.22c.29-.29.29-.77 0-1.06l-1.72-1.72h5.19c.41 0 .75-.34.75-.75s-.34-.75-.75-.75z"/></g></svg>