<svg fill="none" height="24" viewBox="0 0 24 24" width="24" xmlns="http://www.w3.org/2000/svg"><g fill="#292d32"><path d="m16.1894 8.8599c-.39 0-.7-.31-.7-.7v-1.28c0-.98-.42-1.92-1.14-2.58-.74-.67-1.69-.98-2.69-.89-1.68003.16-3.15002 1.87-3.15002 3.65v.9c0 .39-.31001.7-.70001.7s-.69999-.31-.69999-.7v-.9c0-2.5 2.02-4.81 4.41002-5.04 1.39-.13 2.73.31 3.76 1.25 1.02.92 1.6 2.24 1.6 3.61v1.28c0 .39-.31.7-.69.7z" opacity=".4"/><path d="m19.9597 8.96008c-.84-.93-2.22-1.38-4.24-1.38h-7.43995c-2.02 0-3.4.45-4.24 1.38-.97 1.08002-.94 2.52002-.83 3.52002l.7 5.57c.21 1.95 1 3.95 5.3 3.95h5.57995c4.3 0 5.09-2 5.3-3.94l.7-5.59c.11-.99.14-2.43-.83-3.51002zm-7.96 9.62002c-2.08995 0-3.78995-1.7-3.78995-3.79s1.7-3.79 3.78995-3.79c2.09 0 3.79 1.7 3.79 3.79s-1.7 3.79-3.79 3.79z"/><path d="m15.7909 14.79c0 2.09-1.7 3.79-3.79 3.79-2.08996 0-3.78996-1.7-3.78996-3.79s1.7-3.79 3.78996-3.79c2.09 0 3.79 1.7 3.79 3.79z" opacity=".4"/><path d="m10.9999 16.5801c-.25 0-.5-.13-.64-.36-.21-.35-.1-.82.26-1.03l.89-.53v-1.08c0-.41.34-.75.75-.75s.74.33.74.75v1.5c0 .26-.14.51-.36.64l-1.25.75c-.12.07-.26.11-.39.11z"/></g></svg>