<svg fill="none" height="24" viewBox="0 0 24 24" width="24" xmlns="http://www.w3.org/2000/svg"><g fill="#292d32"><path d="m16.7702 18.98h-9.53996c-.42 0-.8-.27-.94-.66l-4.16-11.64996c-.33-.93.73-1.72 1.52-1.15l4 2.86c.53.38 1.29.15 1.52-.46l1.88996-5.04c.32-.87 1.55-.87 1.87 0l1.89 5.04c.23.62.98.84 1.52.46l4-2.86c.8-.57 1.85.23 1.52 1.15l-4.16 11.64996c-.13.39-.51.66-.93.66z" opacity=".4"/><path d="m17 22h-10c-.41 0-.75-.34-.75-.75s.34-.75.75-.75h10c.41 0 .75.34.75.75s-.34.75-.75.75z"/><path d="m14.5 14.75h-5c-.41 0-.75-.34-.75-.75s.34-.75.75-.75h5c.41 0 .75.34.75.75s-.34.75-.75.75z"/></g></svg>