<svg fill="none" height="24" viewBox="0 0 24 24" width="24" xmlns="http://www.w3.org/2000/svg"><g fill="#292d32"><path d="m20.6191 8.45c-1.05-4.62-5.08-6.7-8.62-6.7 0 0 0 0-.01 0-3.52998 0-7.56998 2.07-8.61998 6.69-1.17 5.16 1.99 9.53 4.85 12.28 1.06 1.02 2.41998 1.53 3.77998 1.53s2.72-.51 3.77-1.53c2.86-2.75 6.02-7.11 4.85-12.27z" opacity=".4"/><path d="m11.9996 13.4602c1.7397 0 3.15-1.4103 3.15-3.15 0-1.73974-1.4103-3.15004-3.15-3.15004s-3.14999 1.4103-3.14999 3.15004c0 1.7397 1.41029 3.15 3.14999 3.15z"/></g></svg>